<svg id="Ricamo" xmlns="http://www.w3.org/2000/svg" viewBox="0 0 140.84 186.28"><defs><style>.cls-1,.cls-2{fill:none;stroke:#000;stroke-miterlimit:10;}.cls-1{stroke-width:10px;}</style></defs><rect class="cls-1" x="5" y="5" width="130.84" height="176.28" rx="8.96"/><circle cx="30.46" cy="27.72" r="3.92"/><circle cx="43.78" cy="27.72" r="3.92"/><circle cx="57.1" cy="27.72" r="3.92"/><circle cx="69.63" cy="27.72" r="3.92"/><circle cx="83.74" cy="27.72" r="3.92"/><circle cx="97.06" cy="27.72" r="3.92"/><circle cx="110.37" cy="27.72" r="3.92"/><circle cx="24.59" cy="44.17" r="3.92"/><circle cx="37.9" cy="44.17" r="3.92"/><circle cx="51.22" cy="44.17" r="3.92"/><circle cx="63.76" cy="44.17" r="3.92"/><circle cx="77.86" cy="44.17" r="3.92"/><circle cx="91.18" cy="44.17" r="3.92"/><circle cx="104.5" cy="44.17" r="3.92"/><circle cx="116.25" cy="44.17" r="3.92"/><circle class="cls-2" cx="31.56" cy="70.89" r="3.92"/><circle class="cls-2" cx="44.88" cy="70.89" r="3.92"/><circle class="cls-2" cx="58.2" cy="70.89" r="3.92"/><circle class="cls-2" cx="70.73" cy="70.89" r="3.92"/><circle class="cls-2" cx="84.83" cy="70.89" r="3.92"/><circle class="cls-2" cx="98.15" cy="70.89" r="3.92"/><circle class="cls-2" cx="111.47" cy="70.89" r="3.92"/><circle class="cls-2" cx="25.68" cy="87.34" r="3.92"/><circle class="cls-2" cx="39" cy="87.34" r="3.92"/><circle class="cls-2" cx="52.32" cy="87.34" r="3.92"/><circle class="cls-2" cx="64.86" cy="87.34" r="3.92"/><circle class="cls-2" cx="78.96" cy="87.34" r="3.92"/><circle class="cls-2" cx="92.28" cy="87.34" r="3.92"/><circle class="cls-2" cx="105.6" cy="87.34" r="3.92"/><circle class="cls-2" cx="117.35" cy="87.34" r="3.92"/><rect x="22.22" y="106.85" width="2.86" height="52.49"/><rect x="28.9" y="106.85" width="2.86" height="52.49"/><rect x="35.58" y="106.85" width="2.86" height="52.49"/><rect x="42.26" y="106.85" width="2.86" height="52.49"/><rect x="48.94" y="106.85" width="2.86" height="52.49"/><rect x="55.63" y="106.85" width="2.86" height="52.49"/><rect x="62.31" y="106.85" width="2.86" height="52.49"/><rect x="68.99" y="106.85" width="2.86" height="52.49"/><rect x="75.67" y="106.85" width="2.86" height="52.49"/><rect x="82.35" y="106.85" width="2.86" height="52.49"/><rect x="89.03" y="106.85" width="2.86" height="52.49"/><rect x="95.71" y="106.85" width="2.86" height="52.49"/><rect x="102.39" y="106.85" width="2.86" height="52.49"/><rect x="109.07" y="106.85" width="2.86" height="52.49"/><rect x="115.75" y="106.85" width="2.86" height="52.49"/></svg>